<svg xmlns="http://www.w3.org/2000/svg" xmlns:xlink="http://www.w3.org/1999/xlink" width="600px" height="300px" viewBox="0 0 600 300" version="1.1">
    <!-- Generator: Sketch 50.2 (55047) - http://www.bohemiancoding.com/sketch -->
    <title>gone_fishing_2</title>
    <desc>Created with Sketch.</desc>
    <defs>
        <path d="M12,0.5 L21.6576708,0.5 C23.0342737,0.5 24.234223,1.43689212 24.5680983,2.77239312 L27.0680983,12.7723931 C27.4699445,14.3797778 26.4926624,16.0085813 24.8852777,16.4104275 C24.6473158,16.469918 24.4029562,16.5 24.1576708,16.5 L7,16.5 C5.34314575,16.5 4,15.1568542 4,13.5 L4,8.5 C4,4.081722 7.581722,0.5 12,0.5 Z" id="path-1"/>
        <filter x="-12.5%" y="-18.8%" width="125.0%" height="137.5%" filterUnits="objectBoundingBox" id="filter-2">
            <feOffset dx="0" dy="3" in="SourceAlpha" result="shadowOffsetInner1"/>
            <feComposite in="shadowOffsetInner1" in2="SourceAlpha" operator="arithmetic" k2="-1" k3="1" result="shadowInnerInner1"/>
            <feColorMatrix values="0 0 0 0 1   0 0 0 0 1   0 0 0 0 1  0 0 0 1 0" type="matrix" in="shadowInnerInner1"/>
        </filter>
        <path d="M33,7.5 L129.069977,6 C141.004762,5.72027848 152.148103,4.55361181 162.5,2.5 C154.957682,12.3341695 149.311198,18.872581 145.560547,22.1152344 C141.809896,25.3578878 137.95638,26.8194763 134,26.5 L41.9315492,26.5 C40.1864298,26.5 38.6427288,25.3686411 38.1172186,23.7045255 L33,7.5 Z" id="path-3"/>
        <filter x="-3.5%" y="-18.7%" width="106.9%" height="137.4%" filterUnits="objectBoundingBox" id="filter-4">
            <feOffset dx="0" dy="6" in="SourceAlpha" result="shadowOffsetInner1"/>
            <feComposite in="shadowOffsetInner1" in2="SourceAlpha" operator="arithmetic" k2="-1" k3="1" result="shadowInnerInner1"/>
            <feColorMatrix values="0 0 0 0 1   0 0 0 0 1   0 0 0 0 1  0 0 0 1 0" type="matrix" in="shadowInnerInner1"/>
        </filter>
    </defs>
    <g id="gone_fishing_2" stroke="none" stroke-width="1" fill="none" fill-rule="evenodd">
        <g id="Fishing" transform="translate(51.000000, 54.000000)">
            <g id="Bush1" transform="translate(200.000000, 110.490408)">
                <g id="Group-2" transform="translate(0.155751, 0.135569)"/>
                <g id="Bush1LightBlue" transform="translate(0.643564, 0.000000)" fill="#E3F7FF">
                    <path d="M55.8034184,7.63537004 C54.8113865,7.63537004 53.8578581,7.8040276 52.9687337,8.11484457 C51.2809706,5.50156952 48.3829928,3.77749563 45.0912311,3.77749563 C41.9428372,3.77749563 39.1546729,5.35466093 37.4410721,7.7785217 C36.7555666,7.37199943 35.9593322,7.13927424 35.1099681,7.13927424 C34.3665476,7.13927424 33.6638295,7.31756327 33.0404358,7.63462795 C31.3569142,3.24428618 27.1766186,0.135568801 22.2862821,0.135568801 C17.7959651,0.135568801 13.9042801,2.75651286 11.9943935,6.58399066 C10.8652963,6.04163183 9.6046049,5.73853315 8.27471783,5.73853315 C4.52002871,5.73853315 1.31690541,8.15456408 0.0696234163,11.5499441 C-0.105499815,12.0266686 30.0134313,11.752659 39.6021833,11.752659 C40.8321846,11.752659 42.273799,13.0340596 43.3782352,13.0340596 C47.9264669,13.0340596 54.7488145,13.0340596 63.8452779,13.0340596 C62.4975647,9.85728823 59.4041171,7.63537004 55.8034184,7.63537004 Z" id="Bush1LightBlueShape"/>
                </g>
            </g>
            <path d="M52,133.5 L282,133.5" id="HorizonLine1" stroke="#C2E8FF" stroke-width="3" stroke-linecap="round"/>
            <path d="M68,115 L108.467127,115 C113.479974,115.285406 117.872012,117.387704 121.643244,121.306892 C124.51057,124.286713 130.964451,131.338851 133.564453,132.770996" id="Path-15" stroke="#C2E8FF" stroke-width="3" stroke-linecap="round" stroke-linejoin="round"/>
            <g id="Mountain" transform="translate(95.000000, 76.000000)" stroke="#E3F7FF" stroke-linecap="round" stroke-linejoin="round" stroke-width="3">
                <g id="MountianLightBlue">
                    <polyline id="MountianLightBlueLine4" points="0.612996438 36.629067 34.3520894 0 64.6201136 31.770412"/>
                    <polyline id="MountianLightBlueLine1" points="55.0281341 21.1802747 64.6201136 11.5110188 95.9539134 45.5836346"/>
                </g>
            </g>
            <polygon id="Triangle-2-Copy-15" stroke="#C2E8FF" fill="#C2E8FF" stroke-linecap="round" stroke-linejoin="round" points="196.5 107 201 122 192 122"/>
            <polygon id="Triangle-2-Copy-16" stroke="#C2E8FF" fill="#C2E8FF" stroke-linecap="round" stroke-linejoin="round" points="203 114 205 122 201 122"/>
            <polygon id="Triangle-2-Copy-15" stroke="#C2E8FF" fill="#C2E8FF" stroke-linecap="round" stroke-linejoin="round" points="94.5 100 99 115 90 115"/>
            <polygon id="Triangle-2-Copy-16" stroke="#C2E8FF" fill="#C2E8FF" stroke-linecap="round" stroke-linejoin="round" points="105 107 107 115 103 115"/>
            <path d="M79,123 L95.467127,123 C100.479974,123.285406 104.872012,125.387704 108.643244,129.306892 C110.156539,130.879559 111.50496,132.230182 112.82324,133.365619" id="Path-15" stroke="#C2E8FF" stroke-width="3" stroke-linecap="round" stroke-linejoin="round"/>
            <path d="M288,133.5 L300,133.5" id="HorizonLine1" stroke="#C2E8FF" stroke-width="3" stroke-linecap="round"/>
            <path d="M268.013046,132.648262 C265.708197,129.649114 263.595518,127.654123 261.675011,126.663292 C258.376716,124.96163 255.313477,123.351562 248.357422,123.351562 C243.720052,123.351562 202.652018,123.351562 125.15332,123.351562" id="Path-17" stroke="#C2E8FF" stroke-width="3" stroke-linecap="round" stroke-linejoin="round"/>
            <path d="M276.666016,133.100586 C273.524414,129.054362 270.975911,126.548503 269.020508,125.583008 C266.087402,124.134766 264.313477,123.351562 257.357422,123.351562 C255.799284,123.351562 250.88099,123.351562 242.602539,123.351562" id="Path-17" stroke="#C2E8FF" stroke-width="3" stroke-linecap="round" stroke-linejoin="round"/>
            <g id="Group-5" transform="translate(91.000000, 0.000000)">
                <g id="Group-3">
                    <g id="Page-1" transform="translate(229.000000, 46.500000) scale(-1, 1) translate(-229.000000, -46.500000) translate(217.000000, 35.000000)" stroke="#8CD3F8" stroke-linecap="round" stroke-linejoin="round" stroke-width="3">
                        <path d="M12,11 L5,4" id="Stroke-1"/>
                        <path d="M20,7 L20,0" id="Stroke-2"/>
                        <path d="M7,19 L0,19" id="Stroke-4"/>
                    </g>
                    <g id="Group-2" transform="translate(60.000000, 96.000000)" fill="#C2E8FF">
                        <path d="M2.25877329,21.0758259 C3.58479022,18.4908808 5.32723398,14.6576764 4.82104492,13.2805176 C4.59673366,12.6655345 4.2835296,12.3357429 4.16641137,11.78125 C3.69595326,11.3638681 3.50935804,9.94564088 3.24733082,8.95158631 C3.10639184,8.42330579 2.98347352,7.64510888 2.96362305,7.61889648 C2.72924805,6.50390625 2.94360352,5.69520066 4.16641137,5.69520066 C4.5435719,5.41492969 4.91477716,5.24555731 5.0894621,5.1225607 C5.160924,5.07416859 5.25025156,5.03787451 5.34751922,5.00762944 C5.47059264,4.80196298 5.59565115,4.59831285 5.73063485,4.40272809 C5.38920536,3.74540193 5.12519305,2.81788652 5.87752894,2.23314854 C6.66162577,1.62623084 7.2511872,2.35816148 7.46160309,2.68884089 C8.85908192,1.99118799 10.909644,2.08192319 12.5790754,3.10420649 C12.7914764,2.83401722 13.390963,1.94682856 14.2266713,2.58399132 C15.042529,3.20703973 14.4430424,4.59428018 14.3040885,4.88866551 C15.2370644,6.35454313 15.6995823,8.13900215 15.8643419,9.07659926 C16.1085037,10.4719051 16.8528994,15.9180337 17.9962912,18.1864138 C18.3019896,18.7933315 -0.399215677,24.6709563 2.25877329,21.0758259 Z" id="Fill-1" fill-rule="nonzero" transform="translate(10.000000, 12.116281) scale(-1, 1) rotate(-9.000000) translate(-10.000000, -12.116281) "/>
                        <path d="M2.41992187,14.8105469 C0.72265625,17.1998698 0.202148437,21.3678385 0.858398438,27.3144531 C1.84277344,36.234375 4.92333984,42.2314453 5.20068359,44.1821289 C5.47802734,46.1328125 6.27319336,47.7680664 4.6574707,51.0341797 C3.58032227,53.2115885 2.83447266,55.4700521 2.41992187,57.8095703 L12.4331055,57.8095703 C13.2068685,55.6464844 14.1341146,54.1523438 15.2148437,53.3271484 C16.8359375,52.0893555 20.4921875,50.7070312 21.6450195,50.6542969 C22.7978516,50.6015625 24.378418,51.4477539 24.7685547,53.3271484 C25.0286458,54.5800781 25.1586914,55.6276042 25.1586914,56.4697266 L34.1899414,58.6196289 C34.3816732,54.8950195 34.1419271,52.0035807 33.4707031,49.9453125 C32.4638672,46.8579102 30.4985352,43.0891113 28.6005859,40.440918 C26.7026367,37.7927246 20.2270508,31.8205566 19.3979492,30.2670898 C18.5688477,28.713623 17.3952968,23.4868164 16.6276855,21.9448242 C16.1159447,20.9168294 13.7877383,18.1207682 9.64306641,13.5566406 L2.41992187,14.8105469 Z" id="Path-4"/>
                        <path d="M16.9960938,25.5087891 C19.1587059,26.417806 20.6448712,26.8642578 21.4545898,26.8481445 C22.6691678,26.8239746 24.8623047,24.8676658 25.8862305,23.8676658 C26.9101563,22.8676658 29.2294922,20.1816406 29.9267578,21.9638672 C30.6240234,23.7460938 30.3041992,25.2128806 29.9267578,26.2768454 C29.4863281,27.5334473 28.4782715,28.9831443 27.848877,29.9638572 C27.2194824,30.9445701 25.0882974,33.6115723 23.4963379,33.6442871 C22.4350315,33.666097 19.4290908,33.666097 14.4785156,33.6442871 L16.9960938,25.5087891 Z" id="Path-5"/>
                    </g>
                    <g id="Group" transform="translate(0.000000, 147.000000)" stroke-linecap="round" stroke-linejoin="round">
                        <rect id="Rectangle-3" stroke="#8CD3F8" stroke-width="3" fill="#C2E8FF" x="25" y="12.5" width="11" height="4"/>
                        <g id="Rectangle-2">
                            <use fill="#C2E8FF" fill-rule="evenodd" xlink:href="#path-1"/>
                            <use fill="black" fill-opacity="1" filter="url(#filter-2)" xlink:href="#path-1"/>
                            <use stroke="#8CD3F8" stroke-width="3" xlink:href="#path-1"/>
                        </g>
                        <g id="Rectangle">
                            <use fill="#C2E8FF" fill-rule="evenodd" xlink:href="#path-3"/>
                            <use fill="black" fill-opacity="1" filter="url(#filter-4)" xlink:href="#path-3"/>
                            <use stroke="#8CD3F8" stroke-width="3" xlink:href="#path-3"/>
                        </g>
                        <path d="M30.1533203,7.49023438 C96.953125,6.6640625 132.27653,6.08138021 136.123535,5.7421875 C141.894043,5.23339844 156.436035,4.17871094 165.739258,1.84082031" id="Path-2" stroke="#8CD3F8" stroke-width="3"/>
                        <path d="M0.5,7.5 L25.5,7.5" id="Path-3" stroke="#8CD3F8" stroke-width="3"/>
                        <path d="M23,16.6884766 L25.862793,25.9814453" id="Path-3" stroke="#8CD3F8" stroke-width="3"/>
                        <path d="M18,16.6884766 L20.862793,25.9814453" id="Path-3" stroke="#8CD3F8" stroke-width="3"/>
                    </g>
                    <path d="M131,40.2973054 C131,40.2973054 148.432617,19.0625 156.875977,11.9375 C165.319336,4.8125 192.711914,-11.0630462 184.21582,15.7211335 C175.719727,42.5053132 175.543945,39.9281648 174.649414,45.735782 C173.754883,51.5433991 170.25293,69.0766023 188.518555,60.0248445 C200.025391,53.6918366 205.124023,42.2689851 216.352539,52.4017976" id="Path-9" stroke="#C2E8FF" stroke-width="3" stroke-linecap="round" stroke-linejoin="round"/>
                    <path d="M223,59.1874298 C224.873698,61.7655548 226.060221,64.3417267 226.55957,66.9159454 C227.308594,70.7772735 230.655273,76.2489532 237.705078,73.6952423 C244.754883,71.1415314 248.048828,69.6948116 258.454102,63.1303584 C271.139648,54.881335 283.841797,51.6577022 281.243164,75.1386017 C279.666992,90.7479767 269.294922,102.86571 269.294922,111.937976 C269.294922,121.010241 274.029297,122.997977 275.862305,125.286063 C277.812174,127.21351 281.223633,129.145825 286.09668,131.083008" id="Path-10" stroke="#C2E8FF" stroke-width="3" stroke-linecap="round" stroke-linejoin="round"/>
                    <path d="M98.6386719,90.578125 C99.327474,97.4322917 98.7516276,103.204753 96.9111328,107.895508 C95.070638,112.586263 91.5289714,116.5625 86.2861328,119.824219" id="Path-8" stroke="#C2E8FF" stroke-width="3" stroke-linecap="round" stroke-linejoin="round"/>
                    <path d="M115.719727,61.4042969 C113.779622,67.2317708 111.610352,72.3033854 109.211914,76.6191406 C106.813477,80.9348958 103.213542,85.3001302 98.4121094,89.7148437" id="Path-8" stroke="#C2E8FF" stroke-width="3" stroke-linecap="round" stroke-linejoin="round"/>
                    <path d="M131.408203,40.1533203 C128.657227,44.8186849 126.419596,48.4814453 124.695312,51.1416016 C122.971029,53.8017578 120.421549,56.5966797 117.046875,59.5263672" id="Path-8" stroke="#C2E8FF" stroke-width="3" stroke-linecap="round" stroke-linejoin="round"/>
                    <path d="M129.847656,39 C116.727865,52.2408854 106.520833,66.0608724 99.2265625,80.4599609 C94.0544474,90.2426739 86.9789266,109.111489 78,137.066406" id="Path-6" stroke="#8CD3F8" stroke-width="3" stroke-linecap="round" stroke-linejoin="round"/>
                    <circle id="Oval" stroke="#8CD3F8" stroke-width="3" fill="#E3F7FF" stroke-linecap="round" stroke-linejoin="round" cx="89.5" cy="121.5" r="4.5"/>
                    <path d="M70.0597094,111.115146 C74.4190231,111.736068 77.4610079,111.736068 79.1856639,111.115146 C81.7726478,110.183764 85.9349828,105.625723 87.1553072,104.433914 C88.3756315,103.242105 91.6176091,99.6631847 92.4486168,101.787259 C93.2796246,103.911333 93.4228516,106.256271 92.4486168,107.745605 C91.5566406,109.562912 86.846298,114.225315 86.0961797,115.394137 C85.3460614,116.56296 83.2939621,118.965492 80.8294539,119.653925 C79.1864485,120.11288 75.2432972,120.355354 69,120.381348 L70.0597094,111.115146 Z" id="Path-5" fill="#C2E8FF"/>
                    <path d="M114.554688,59.8896484 L118.273438,62.6679688" id="Path-7" stroke="#8CD3F8" stroke-width="3" stroke-linecap="round" stroke-linejoin="round"/>
                    <path d="M130.583984,39.0361328 L132.377388,40.5682453" id="Path-7" stroke="#8CD3F8" stroke-width="3" stroke-linecap="round" stroke-linejoin="round"/>
                    <path d="M96.5546875,88.8896484 L100.708984,90.6035156" id="Path-7" stroke="#8CD3F8" stroke-width="3" stroke-linecap="round" stroke-linejoin="round"/>
                </g>
                <g id="Group-4" transform="translate(302.500000, 137.000000) rotate(25.000000) translate(-302.500000, -137.000000) translate(281.000000, 112.000000)">
                    <path d="M9.01953125,29.3769531 L0.74609375,22.8378906 C4.86523437,13.3867187 11.1308594,8.6344401 19.5429688,8.58105469 C32.1611328,8.50097656 41.2236328,17.871582 42.2021484,25.0219727 C43.1806641,32.1723633 41.7978516,38.078125 37.4941406,43.7705078 C39.2018229,38.2099609 38.5227865,34.2200521 35.4570312,31.8007812 C33.3489583,30.1848958 31.2275391,29.3769531 29.0927734,29.3769531 L1.36588815,29.3769531" id="Path-11" stroke="#8CD3F8" stroke-width="3" stroke-linecap="round" stroke-linejoin="round"/>
                    <path d="M19.0180664,13.6499023 C22.2430427,14.7840694 23.8555308,17.2775721 23.8555308,21.1304105 C23.8555308,24.9832488 21.6074426,27.7006836 17.1112661,29.2827148" id="Path-12" stroke="#8CD3F8" stroke-width="3" stroke-linecap="round" stroke-linejoin="round"/>
                    <circle id="Oval-2" fill="#8CD3F8" cx="11.5" cy="20.5" r="2.5"/>
                    <path d="M28.965332,18.4018555 C32.3787435,19.0206706 34.5511068,20.9111328 35.4824219,24.0732422 L28.874685,24.0732422" id="Path-13" stroke="#8CD3F8" stroke-width="3" stroke-linecap="round" stroke-linejoin="round"/>
                    <path d="M22.090647,30 C25.5040585,30.6188151 27.6764217,32.5092773 28.6077368,35.6713867 L22,35.6713867" id="Path-13" stroke="#8CD3F8" stroke-width="3" stroke-linecap="round" stroke-linejoin="round" transform="translate(25.303868, 32.835693) rotate(-270.000000) translate(-25.303868, -32.835693) "/>
                    <path d="M41.043457,37.4487305 C38.1277669,40.917806 34.9695638,42.7832031 31.5688477,43.0449219 C28.1681315,43.3066406 25.311849,42.387207 23,40.2866211 L23,49.6492497 C28.8697917,49.3244895 33.0807292,48.0322266 35.6328125,45.7724609 C38.1848958,43.5126953 39.988444,40.7381185 41.043457,37.4487305 Z" id="Path-14" stroke="#8CD3F8" stroke-width="3" stroke-linecap="round" stroke-linejoin="round"/>
                    <path d="M21.2148438,8.4140625 L21.2148438,0.497827254 C32.7454427,4.04159346 39.5970052,11.5416667 41.7695312,22.9980469" id="Path-15" stroke="#8CD3F8" stroke-width="3" stroke-linecap="round" stroke-linejoin="round"/>
                </g>
            </g>
            <path d="M111.443359,173.255859 L119.516602,170.289062 L121.924805,167.399414 L129.679688,173.255859 L134.913086,173.255859 L141.138672,168.954102 L143.460938,167.399414 L146.454102,170.327637 L152.322266,173.255859 L157.671875,171.993164 L163.746094,167.399414 L168.4375,170.327637 L174.268555,173.255859 L180.455078,171.993164 L185.290039,167.399414 L188.820312,170.327637 L194.101562,171.993164 L199.039062,171.993164 L203.492188,170.289062 L206.049805,167.399414 L209.637695,171.993164 L215.133789,173.458496 C218.735449,172.979683 220.483984,172.979683 220.379395,173.458496 C220.309128,173.780175 229.176547,166.946531 227.351074,168.077637 C226.952632,168.324521 230.556346,169.425594 233.478027,171.993164 C234.436332,172.835321 235.494925,174.481479 236.653809,176.931641 L109.99707,179.517578 L111.443359,173.255859 Z" id="Path-16" fill="#FFFFFF"/>
            <g id="HookWater" transform="translate(88.000000, 167.000000)" stroke="#C2E8FF" stroke-linecap="round" stroke-linejoin="round" stroke-width="3">
                <g id="HookWaterLightBlue">
                    <path d="M66.5016961,5.72253485 C59.2581641,7.22907384 54.7616802,0 54.7616802,0 L54.7530053,0 C54.7530053,0 51.3235326,5.94519033 44.2795231,5.94519033 C37.5304598,5.94519033 33.8262823,0 33.8262823,0 L33.8147158,0 C33.8147158,0 30.3910264,5.94519033 23.3470169,5.94519033 C16.5950619,5.94519033 12.8937761,0 12.8937761,0 L12.8822096,0 C12.8822096,0 7.08738399,7.34763065 0,5.84109166" id="Water8"/>
                    <path d="M128.118164,6.5 C121.328125,7.00976563 117.76168,0 117.76168,0 L117.753005,0 C117.753005,0 114.323533,5.94519033 107.279523,5.94519033 C100.53046,5.94519033 96.8262823,0 96.8262823,0 L96.8147158,0 C96.8147158,0 93.3910264,5.94519033 86.3470169,5.94519033 C79.5950619,5.94519033 75.8937761,0 75.8937761,0 L75.8822096,0 C75.8822096,0 70.087384,7.34763065 63,5.84109166" id="Water7"/>
                    <path d="M194.118164,6.5 C187.328125,7.00976563 183.76168,0 183.76168,0 L183.753005,0 C183.753005,0 180.323533,5.94519033 173.279523,5.94519033 C166.53046,5.94519033 162.826282,0 162.826282,0 L162.814716,0 C162.814716,0 159.391026,5.94519033 152.347017,5.94519033 C145.595062,5.94519033 141.893776,0 141.893776,0 L141.88221,0 C141.88221,0 136.087384,7.34763065 129,5.84109166" id="Water7" transform="translate(161.559082, 3.263257) scale(-1, 1) translate(-161.559082, -3.263257) "/>
                    <path d="M259.501696,5.72253485 C252.258164,7.22907384 247.76168,0 247.76168,0 L247.753005,0 C247.753005,0 244.323533,5.94519033 237.279523,5.94519033 C230.53046,5.94519033 226.826282,0 226.826282,0 L226.814716,0 C226.814716,0 223.391026,5.94519033 216.347017,5.94519033 C209.595062,5.94519033 205.893776,0 205.893776,0 L205.88221,0 C205.88221,0 200.087384,7.34763065 193,5.84109166" id="Water4"/>
                    <path d="M236.501696,24.7225349 C229.258164,26.2290738 224.76168,19 224.76168,19 L224.753005,19 C224.753005,19 221.323533,24.9451903 214.279523,24.9451903 C207.53046,24.9451903 203.826282,19 203.826282,19 L203.814716,19 C203.814716,19 200.391026,24.9451903 193.347017,24.9451903 C186.595062,24.9451903 182.893776,19 182.893776,19 L182.88221,19 C182.88221,19 177.087384,26.3476307 170,24.8410917" id="Water3"/>
                    <path d="M392.501696,5.72253485 C385.258164,7.22907384 380.76168,0 380.76168,0 L380.753005,0 C380.753005,0 377.323533,5.94519033 370.279523,5.94519033 C363.53046,5.94519033 359.826282,0 359.826282,0 L359.814716,0 C359.814716,0 356.391026,5.94519033 349.347017,5.94519033 C342.595062,5.94519033 338.893776,0 338.893776,0 L338.88221,0 C338.88221,0 333.087384,7.34763065 326,5.84109166" id="Water2"/>
                    <path d="M299.501696,24.7225349 C292.258164,26.2290738 287.76168,19 287.76168,19 L287.753005,19 C287.753005,19 284.323533,24.9451903 277.279523,24.9451903 C270.53046,24.9451903 266.826282,19 266.826282,19 L266.814716,19 C266.814716,19 263.391026,24.9451903 256.347017,24.9451903 C249.595062,24.9451903 245.893776,19 245.893776,19 L245.88221,19 C245.88221,19 240.087384,26.3476307 233,24.8410917" id="Water1"/>
                </g>
            </g>
        </g>
        <g id="Group-7" transform="translate(146.000000, 108.000000)">
            <g id="Page-1" fill="#FFFFFF" stroke="#8CD3F8" stroke-linejoin="round" stroke-width="3">
                <path d="M0,20.6049693 C0,35.3307811 17.6165874,46.4217837 33.0441876,39.5525527 L43.1738281,44.3769531 L41.1434398,34.3420694 C45.5853161,30.7808008 48,26.0905487 48,20.6049693 C48,9.77135853 37.2562882,0 24,0 C10.7437118,0 0,9.77135853 0,20.6049693 Z" id="Stroke-3"/>
            </g>
            <g id="Group-6" transform="translate(23.500000, 21.500000) rotate(-6.000000) translate(-23.500000, -21.500000) translate(20.000000, 9.000000)" fill="#8CD3F8">
                <polygon id="Rectangle" points="0 0 7 0 6 15 1 15"/>
                <circle id="Oval-2" cx="3.5" cy="21.5" r="3.5"/>
            </g>
        </g>
        <g id="Group-8" transform="translate(273.000000, 115.000000)">
            <path d="M3.3755164,57.5 L19.6244836,57.5 C20.1256862,57.5 20.5494707,57.8710303 20.6157115,58.3678363 L22.3490448,71.3678363 C22.4220368,71.9152763 22.0374207,72.4182359 21.4899807,72.4912279 C21.4461684,72.4970695 21.402017,72.5 21.3578169,72.5 L1.64218306,72.5 C1.08989831,72.5 0.642183063,72.0522847 0.642183063,71.5 C0.642183063,71.4558 0.645113523,71.4116486 0.650955163,71.3678363 L2.3842885,58.3678363 C2.4505293,57.8710303 2.87431378,57.5 3.3755164,57.5 Z" id="Rectangle-4" stroke="#C2E8FF" stroke-width="3" fill="#FFFFFF" stroke-linecap="round" stroke-linejoin="round"/>
            <rect id="Rectangle-6" fill="#E3F7FF" x="6" y="31" width="11" height="6"/>
            <rect id="Rectangle-6" fill="#E3F7FF" x="6" y="41" width="11" height="6"/>
            <rect id="Rectangle-6" fill="#E3F7FF" x="6" y="51" width="11" height="6"/>
            <rect id="Rectangle-4" stroke="#C2E8FF" stroke-width="3" stroke-linecap="round" stroke-linejoin="round" x="5.5" y="25.5" width="12" height="32" rx="1"/>
            <path d="M5.8628195,15.2000427 L11.5478516,10.5 L17.1432068,15.200282 C17.3693935,15.3902863 17.5,15.670573 17.5,15.9659745 L17.5,24.5 C17.5,25.0522847 17.0522847,25.5 16.5,25.5 L6.5,25.5 C5.94771525,25.5 5.5,25.0522847 5.5,24.5 L5.5,15.9707573 C5.5,15.6726114 5.6330341,15.3900154 5.8628195,15.2000427 Z" id="Rectangle-4" stroke="#C2E8FF" stroke-width="3" stroke-linecap="round" stroke-linejoin="round"/>
            <path d="M0.87109375,25.5 L21.8710938,25.5" id="Path-18" stroke="#C2E8FF" stroke-width="3" stroke-linecap="round" stroke-linejoin="round"/>
            <path d="M11.5,10.2988281 L11.5,0.550464229" id="Path-19" stroke="#C2E8FF" stroke-width="3" stroke-linecap="round" stroke-linejoin="round"/>
        </g>
    </g>
</svg>