<svg xmlns="http://www.w3.org/2000/svg" width="257" height="108" fill="none" viewBox="0 0 2570 1080">
   <style>.g{stroke-width:30}.h{stroke-linecap:round}.i{stroke-linejoin:round}.j{fill:#c2e8ff}.k{stroke:#8cd3f8}.l{stroke:#c2e8ff}</style>
   <path d="M336 1050l485-485 280 275m-40-45l100-85 380 350M706 685h72l72 71 46-47 44 44 25-26" class="g h i l" />
   <g class="j">
      <path d="M360 917l-35 127 70-63-15-63a10 10 0 0 0-20 0z" />
      <path d="M299 875l-42 173h93l-33-172a10 10 0 0 0-20 0zm1153 30l16 58-44-26 8-32a10 10 0 0 1 20 0zm-695 86c3 3 4 6 2 9-2 4-11 6-22 0v15c0 3-3 11-1 13 5 5 6 10 5 14 0 3-4 5-9 6a30 30 0 0 1-13 2c-12-1-17-4-17-10v-2c2-3 3-7 3-10a8 8 0 0 0 0-3 10 10 0 0 0-4-4c-2 0-4 0-5 3l-1 2v3l2 2a8 8 0 0 1 0 3c0 4-2 10-10 11a60 60 0 0 1-7 1c-8 0-14 0-18-4-2-2 0-12 2-20-16-7-20-20-20-20 5 3 9 7 10 5s-25-20-9-48c0 17 7 20 9 20s0-2 0-6c5 2 10 6 12 10v-1l2-10c2-6 5-12 10-17a27 27 0 0 1-3-2c-16-10-40-38-13-76a46 46 0 0 1 5-5c-3-34 16-20 25-13a70 70 0 0 1 42 4c10-7 28-16 22 17 0 0 11 43-17 66a63 63 0 0 1-16 9 7 7 0 0 1 1 1c9 3 10 10 10 10v5l3 3 2 3 9 3h2c2 0 7 0 7 5l-1 3v3zM613 857c10 7 20 18 16 26-2 5-20 17-37 5l-3-3 3 10c10 33 4 94 8 113 5 23 19 10 20 35 0 10-46 23-65 14-13-6 5-30-33-48-8-4-15 1-13 11 0 0 15 7 10 19s-53 20-63 7c-6-8-1-18-2-43 0-4-5-27-4-49 3-42 10-85 15-117a46 46 0 0 1-8-5c-4-3-10-26 2-43a158 158 0 0 1 23-27 104 104 0 0 1 4-10c6-11 10-39 11-46a80 80 0 0 1 8-21c0-2-3-9 0-12 5-3 8 1 9 3 9-6 20-6 26-2 2-2 4-6 9-3 3 3 2 8 0 11a55 55 0 0 1 2 3l2 1 4 3c7 0 9 5 6 10v7a20 20 0 0 1-7 10 65 65 0 0 1-2 9c-3 7 6 30 13 42 14 19 25 48 30 66a50 50 0 0 0 16 24zm1720 193h-830v-12c0-69 54-125 120-125a117 117 0 0 1 52 12c26-53 80-90 142-90a160 160 0 0 1 148 105 62 62 0 0 1 29-7c12 0 23 3 32 9a129 129 0 0 1 234 54h10c31 0 58 23 63 54z" />
      <path d="M1747 1050a90 90 0 0 0-82-57 86 86 0 0 0-29 5 95 95 0 0 0-80-45c-32 0-60 17-78 42-7-4-15-7-24-7a46 46 0 0 0-21 5 120 120 0 0 0-110-78 120 120 0 0 0-105 67 86 86 0 0 0-38-8 90 90 0 0 0-87 75h654z" />
      <path d="M852 1044h827v-11a121 121 0 0 0-172-110 159 159 0 0 0-289 14 63 63 0 0 0-60 2 130 130 0 0 0-233 53 64 64 0 0 0-10-1 64 64 0 0 0-63 53z" />
      <path d="M1417 717h329l170 334h-665z" />
      <path fill="#fff" d="M1430 730h330v30h-330z" />
   </g>
   <g class="k g">
      <g class="i">
         <path d="M1415 715l-170 340 170-340zm0 0h324a10 10 0 0 1 9 5l165 320a10 10 0 0 1-10 15h-307a10 10 0 0 1-9-5l-172-335z" />
         <path d="M1595 985v60m-360-60v60" class="h" />
      </g>
      <path d="M1415 745v310" />
   </g>
   <g class="g h i l">
      <ellipse cx="318" cy="318" stroke-dasharray="675 5 5 90" rx="225" ry="226" transform="rotate(230 467 206)" />
      <ellipse cx="316" cy="316" stroke-dasharray="535 50" rx="165" ry="166" transform="rotate(150 490 325)" />
   </g>
   <ellipse cx="645" cy="246" class="j" rx="125" ry="126" />
   <g class="g">
      <ellipse cx="645" cy="246" class="k" rx="110" ry="111" />
      <path d="M1656 493s43-26 65 20m49-50s-50-1-46 50m-221-165s49 9 36 58m70-12s-37-33-68 7" class="h l" />
   </g>
   <path d="M2174 748l59 201a20 20 0 0 1-20 26h-116a20 20 0 0 1-20-26l59-201a20 20 0 0 1 38 0z" class="j" />
   <g class="k g">
      <g class="i">
         <path d="M2155 707l85 268h-170z" />
         <path d="M2195 872l-40 50c0-1 13-18 40-50z" />
      </g>
      <path d="M2155 737v313-313z" />
   </g>
   <path d="M1973 530l123 420a20 20 0 0 1-20 25h-206a20 20 0 0 1-20-26l124-419z" class="j" />
   <g class="k g">
      <g class="i">
         <path d="M1975 540l130 435h-260z" />
         <path d="M1918 760l55 55c0-1-18-20-55-55zm60 120l70-80-70 80z" />
      </g>
      <path d="M1975 570v480-480z" />
      <path d="M160 1055h2390m-2530 0h80" class="h" />
   </g>
</svg>