<svg xmlns="http://www.w3.org/2000/svg" width="256" height="90" fill="none" viewBox="0 0 2560 900"><style>.g{stroke-width:30}.h{stroke-linejoin:round}.i{stroke-linecap:round}.j{stroke:#c2e8ff}.k{fill:#c2e8ff}.l{stroke:#8cd3f8}</style><linearGradient id="A" x1="50%" x2="50%" y1="0%" y2="78%"><stop offset="0%" stop-color="#fff"/><stop offset="100%" stop-color="#c2e8ff"/></linearGradient><g stroke="#e3f7ff" class="g h i"><ellipse cx="1958" cy="412" stroke-dasharray="1145 5 5 90" rx="225" ry="226"/><ellipse cx="1958" cy="412" stroke-dasharray="990 50" rx="165" ry="166" transform="rotate(25 1950 410)"/></g><circle cx="1955" cy="420" r="125" fill="#e3f7ff"/><circle cx="1955" cy="415" r="110" class="g j"/><path fill="#fff" d="M2381 863l-402-403-233 228M357 390L234 800a20 20 0 0 0 20 25h206a20 20 0 0 0 20-26L356 390z"/><path d="M2381 863l-402-403-233 228m33-37l-83-71-315 291" class="g h i j"/><path d="M2025 806c-4 3-5 6-3 10 2 3 12 6 24 0v14c0 3 3 10 1 13-5 5-7 9-6 14 1 3 5 5 10 6 4 1 10 2 14 1 13 0 18-3 18-8v-3l-2-10a7 7 0 0 1 0-3 10 10 0 0 1 3-4h2c1-1 3 0 5 2v3a4 4 0 0 1 0 3l-2 4c0 5 3 10 10 12a92 92 0 0 0 9 1c8 0 14 0 19-4 2-2 0-12-2-21 17-6 20-19 20-19-4 2-8 7-9 4s26-19 9-48c0 18-8 20-10 20s0-2 0-6c-5 2-10 7-13 10v-1c0-3 0-6-2-10-2-6-6-12-10-17a30 30 0 0 0 3-2c17-10 44-39 13-77a49 49 0 0 0-5-5c3-34-17-20-27-13a81 81 0 0 0-45 4c-10-7-30-16-24 17 0 0-12 44 19 67a70 70 0 0 0 16 10c-10 3-11 10-11 10v5l-3 4a41 41 0 0 1-3 3c-4 2-10 2-10 2a8 8 0 0 0-1 0c-3 0-8 0-9 5l2 4v2zm244-310c-10-6-32-4-39-2-2-2-7-6-12-2-5 6 4 16 4 16l-3 25a150 150 0 0 1-10 35s-45 32-54 50c-8 13-3 20 3 31 6 9-2 7-5 9-6 2-10 26 12 30 10 3 20-2 28-10l-3 12c-8 28-14 74-24 110-6 20-18 31-18 44 0 17 20 25 47 22 16-2 22-9 24-28 3-22 35-28 50-28 26-1 59 14 60 30 1 12 0 26 24 30 30 5 46-7 46-19 0-7-8-28-20-54-17-42-43-96-53-118-9-18-15-39-20-57 10-7 22-17 32-33 5-7 12-31 14-53 4-20 1-43-20-45-14 0-15 13-12 32 0 18 0 30-2 31-4 8-13 13-20 17l-6 1c-6-15-10-45-14-62 2-3 7-10 3-14-4-5-10-2-12 0z" class="k"/><g class="g j"><path d="M355 408v465-465z"/><path d="M355 390L217 818h270z" class="h"/></g><path fill="#fff" d="M196 593l-59 201a20 20 0 0 0 20 26h116a20 20 0 0 0 20-26l-59-201a20 20 0 0 0-38 0z"/><g class="g h j"><path d="M412 600l-55 55c0-1 18-20 55-55zm-60 130l-70-80 70 80zM212 552l-90 261h180z"/><path d="M165 697l40 50c0-1-13-18-40-50zm48-124v295-295z"/></g><path d="M2415 875H15m2530 0h-80m-470 0l-910-480m488 227l-60 60m-8 185V570" class="g i l"/><g class="k"><path d="M1740 870c0-36 30-70 66-70s65 34 65 70h-131z"/><path d="M1840 875c0-54 44-105 98-105s98 50 98 105h-196z"/></g><g class="g h l"><path d="M1740 870c0-36 30-70 66-70 18 0 35 9 47 23a140 140 0 0 0-13 47h-100z"/><path d="M1840 875c0-54 44-105 98-105s98 50 98 105h-196z"/></g><g class="k"><path d="M1178 620a107 107 0 0 0 28 43c20 19 23 38 22 50s-2 17-12 28c-8 10-26 10-26 10s8-7 7-18c0-10-5-17-5-17s-2 14-14 25-12 19-12 19-25-3-39-26a54 54 0 0 1-7-29c0-26 13-40 14-40l8 16c3 6 10 10 10 10s-3-5-1-25c2-27 27-46 27-46z"/><path d="M1224 495h-93l-6 140h105zm-524 25H480l100 260h220z"/></g><path stroke="url(#A)" d="M1177 334s11-34-37-34h-68c-39 0-36-50 0-50h310c43 0 43-63 0-63H959c-67 0-66-78-2-78h273c19 0 52-2 52-43V23" class="g i"/><g class="k"><circle cx="1090" cy="820" r="35"/><circle cx="1170" cy="820" r="35"/><circle cx="1270" cy="820" r="35"/></g><g class="g l"><circle cx="1090" cy="820" r="35"/><circle cx="1175" cy="820" r="35"/><circle cx="1265" cy="820" r="35"/></g><path fill="#8cd3f8" d="M1230 520h24a10 10 0 0 1 8 14l-22 46-10-60z"/><path fill="#fff" d="M700 500H480l30 60h220z"/><g class="g h l"><path d="M1110 580a30 30 0 1 1 19-53l-1 47a30 30 0 0 1-18 6zm114-85h-93l-6 140h105zm-49-85a30 30 0 0 0-30 30v55h60v-55a30 30 0 0 0-30-30zM700 515H480l100 260h220z"/><path d="M720 675H520m400 0H780m200 100H580m298-95l60 154a30 30 0 0 1-28 41H795a60 60 0 0 1-56-38l-60-156m-129-1l-60 154a30 30 0 0 0 28 41h115a60 60 0 0 0 56-38l21-57" class="i"/></g></svg>